<svg width="16" height="16" viewBox="0 0 16 16" fill="none" xmlns="http://www.w3.org/2000/svg">
<path d="M14.8354 14.3639L14.3639 14.8353C14.1036 15.0956 13.6815 15.0956 13.4211 14.8353L8 9.41408L2.5788 14.8352C2.3185 15.0956 1.89638 15.0956 1.63603 14.8352L1.16462 14.3638C0.904273 14.1035 0.904273 13.6814 1.16462 13.421L6.5858 7.99988L1.16462 2.57868C0.904273 2.31838 0.904273 1.89626 1.16462 1.63591L1.63602 1.16451C1.89637 0.90416 2.3185 0.90416 2.5788 1.16451L8 6.58568L13.4211 1.1645C13.6815 0.904151 14.1036 0.904151 14.3639 1.1645L14.8354 1.6359C15.0957 1.89625 15.0957 2.31838 14.8354 2.57868L9.4142 7.99988L14.8354 13.421C15.0957 13.6814 15.0957 14.1035 14.8354 14.3639Z" fill="black"/>
</svg>
